<svg width="16" height="15" viewBox="0 0 16 15" fill="none" xmlns="http://www.w3.org/2000/svg">
<path d="M13.7693 5.17234L9.91952 4.63181L8.19859 1.26121C8.15158 1.16892 8.07426 1.09421 7.97873 1.0488C7.73917 0.934545 7.44805 1.02976 7.32826 1.26121L5.60733 4.63181L1.75759 5.17234C1.65145 5.18699 1.55442 5.23533 1.48012 5.30857C1.3903 5.39776 1.34081 5.51775 1.34251 5.64218C1.34422 5.7666 1.39698 5.88528 1.48922 5.97214L4.27455 8.59568L3.6165 12.3003C3.60107 12.3864 3.61094 12.4751 3.645 12.5561C3.67905 12.6371 3.73593 12.7073 3.80917 12.7587C3.88242 12.8101 3.9691 12.8407 4.0594 12.8469C4.14969 12.8531 4.23999 12.8348 4.32004 12.7939L7.76343 11.0449L11.2068 12.7939C11.3008 12.8423 11.41 12.8584 11.5146 12.8408C11.7784 12.7969 11.9558 12.5552 11.9103 12.3003L11.2523 8.59568L14.0376 5.97214C14.1134 5.90037 14.1635 5.80662 14.1786 5.70408C14.2196 5.44773 14.0346 5.21043 13.7693 5.17234V5.17234Z" fill="#505050"/>
</svg>
